<svg xmlns="http://www.w3.org/2000/svg" width="937.773" height="401.682" viewBox="0 0 937.773 401.682">
  <g id="undraw_code_thinking_re_gka2" transform="translate(0 0)">
    <path id="Path_1" data-name="Path 1" d="M310.112,474.487a8.969,8.969,0,1,0-17.852,1.179l-25.769,33.746a12.494,12.494,0,0,0,1.689,13.719l2.021,2.358,9.275-1.855,10.512-9.275-1.237-10.512,12.985-20.405-.017-.015a8.962,8.962,0,0,0,8.392-8.94Z" transform="translate(-104.277 -250.398)" fill="#ffb9b9"/>
    <path id="Path_2" data-name="Path 2" d="M29.674,419.545l-4.206-15.623,58.256-23.658,6.208,23.057Z" transform="translate(-2.041 -30.478)" fill="#ffb8b8"/>
    <path id="Path_3" data-name="Path 3" d="M103.82,658.926,90.258,608.553l.637-.172a20.306,20.306,0,0,1,24.886,14.327h0l8.283,30.766Z" transform="translate(-90.258 -261.797)" fill="#2f2e41"/>
    <path id="Path_4" data-name="Path 4" d="M116.138,414.633l-13.084-9.515,30.476-55,19.311,14.043Z" transform="translate(-8.26 -28.062)" fill="#ffb8b8"/>
    <path id="Path_5" data-name="Path 5" d="M197.461,664.892l-42.19-30.683.388-.534a20.306,20.306,0,0,1,28.363-4.48h0l25.768,18.74Z" transform="translate(-95.469 -263.211)" fill="#2f2e41"/>
    <path id="Path_6" data-name="Path 6" d="M318.267,565.167l-32.926-31.986a16.627,16.627,0,0,0-21.771-1.216L201.4,601.03l5.565,8.657L266.327,569.5l40.192,52.559,38.337-19.168Z" transform="translate(-99.166 -255.45)" fill="#2f2e41"/>
    <path id="Path_7" data-name="Path 7" d="M307.926,574.868l-24.115-1.855-17.464-4.234a8.971,8.971,0,1,0-1.7,11.641l0,.012,10.512,4.328,45.139,15.458,5.565-4.328Z" transform="translate(-103.047 -258.348)" fill="#ffb9b9"/>
    <path id="Path_8" data-name="Path 8" d="M267.009,410.88l-13.6,8.657H237.328l-74.819-27.825L53.063,411.5,49.971,388l100.172-43.9,87.8,29.062Z" transform="translate(-4.005 -27.579)" fill="#2f2e41"/>
    <circle id="Ellipse_2" data-name="Ellipse 2" cx="24.115" cy="24.115" r="24.115" transform="translate(209.826 184.812)" fill="#ffb9b9"/>
    <path id="Path_9" data-name="Path 9" d="M401.592,557.568a138.555,138.555,0,0,1-6.795,42.855l-1.806,5.555-8.657,39.574-9.275,2.473-6.8-8.657-13.6-9.893L344.761,613.4l-8.484-14.135-2.647-4.415-9.275-46.376L289.11,528.685l-11.749-1.855,2.473-6.8,10.512-14.222,10.512-1.237,3.092-2.473,2.473,1.237,13.635,5.252,44.205-18.677,6.468,1.057,22.26,18.55A138.438,138.438,0,0,1,401.592,557.568Z" transform="translate(-105.254 -252.358)" fill="#ccc"/>
    <path id="Path_10" data-name="Path 10" d="M308.845,323.363l-23.5,15.458-35.072,31.622-2.646-4.414-7.42-37.1h1.855l19.169-35.245Z" transform="translate(-19.253 -23.539)" opacity="0.1"/>
    <path id="Path_11" data-name="Path 11" d="M259.563,289.649l-19.169,35.245-11.13,12.367-9.893,2.473L245.959,368.8l37.718-34.009,23.5-15.459Z" transform="translate(-17.583 -23.215)" fill="#ccc"/>
    <path id="Path_12" data-name="Path 12" d="M323.463,437.651l-2.613,1.005a3.648,3.648,0,0,1-.975-5.065l.043-.062-4.828-.226a36.461,36.461,0,0,1,54.431-4.387c.22-.757,2.616.716,3.595,2.21.329-1.232,2.576,4.724,3.37,8.933.368-1.4,1.783.861.543,3.032.785-.115,1.14,1.894.532,3.014.859-.4.714,1.995-.217,3.6,1.226-.109-.1,25.141-18.5,23.3-1.281-5.885-.92-5.519-2.428-13.086-.7-.745-1.471-1.424-2.238-2.1l-4.151-3.664c-4.827-4.261-9.217-9.519-15.647-11.111-4.419-1.094-7.213-1.341-4.8-6.321-2.176.908-4.207,2.258-6.4,3.1C323.2,439.125,323.506,438.346,323.463,437.651Z" transform="translate(-108.278 -246.653)" fill="#2f2e41"/>
    <circle id="Ellipse_3" data-name="Ellipse 3" cx="4.328" cy="4.328" r="4.328" transform="translate(241.671 207.382)" fill="#ffb9b9"/>
    <rect id="Rectangle_22" data-name="Rectangle 22" width="19.878" height="19.878" transform="translate(42.83 129.317) rotate(-86.19)" fill="#e6e6e6"/>
    <path id="Path_13" data-name="Path 13" d="M124.2,362.131l24.084,1.6-1.6,24.084-24.084-1.6Zm22.967,2.581-21.99-1.464-1.464,21.99,21.99,1.464Z" transform="translate(-92.85 -242.117)" fill="#ccc"/>
    <rect id="Rectangle_23" data-name="Rectangle 23" width="19.878" height="19.878" transform="matrix(0.978, -0.21, 0.21, 0.978, 136.805, 54.845)" fill="#e6e6e6"/>
    <path id="Path_14" data-name="Path 14" d="M243.222,276.51l5.071,23.6-23.6,5.071-5.071-23.6Zm3.824,22.793-4.63-21.547-21.547,4.63,4.63,21.547Z" transform="translate(-100.626 -235.254)" fill="#ccc"/>
    <rect id="Rectangle_24" data-name="Rectangle 24" width="19.878" height="19.878" transform="matrix(0.73, -0.684, 0.684, 0.73, 121.308, 157.589)" fill="#e6e6e6"/>
    <path id="Path_15" data-name="Path 15" d="M250.842,384.462l-17.617,16.5-16.5-17.617,17.617-16.5ZM233.274,399.48l16.085-15.066-15.066-16.085-16.085,15.066Z" transform="translate(-100.394 -242.494)" fill="#ccc"/>
    <path id="Path_16" data-name="Path 16" d="M1000.883,231.659H412.742a16.188,16.188,0,0,0-16.188,16.188v327.7a16.188,16.188,0,0,0,16.188,16.188h588.141a16.188,16.188,0,0,0,16.188-16.188v-327.7a16.188,16.188,0,0,0-16.188-16.188Z" transform="translate(-114.807 -231.659)" fill="#3f3d56"/>
    <rect id="Rectangle_25" data-name="Rectangle 25" width="577.106" height="325.547" transform="translate(303.449 28.609)" fill="#fff"/>
    <circle id="Ellipse_4" data-name="Ellipse 4" cx="5.919" cy="5.919" r="5.919" transform="translate(585.59 7.892)" fill="#fff"/>
    <path id="Path_17" data-name="Path 17" d="M741.953,356.649H329.89V31.1Z" transform="translate(-26.441 -2.493)" fill="#f2f2f2"/>
    <circle id="Ellipse_5" data-name="Ellipse 5" cx="55.473" cy="55.473" r="55.473" transform="translate(338.276 218.848)" fill="#076aff"/>
    <path id="Path_18" data-name="Path 18" d="M525.729,563.185a69,69,0,1,1,69-69,69,69,0,0,1-69,69Zm0-137.1a68.1,68.1,0,1,0,68.1,68.1,68.1,68.1,0,0,0-68.1-68.1Z" transform="translate(-119.63 -247.17)" fill="#3f3d56"/>
    <rect id="Rectangle_26" data-name="Rectangle 26" width="53.908" height="11.264" transform="translate(693.049 197.74)" fill="#3f3d56"/>
    <rect id="Rectangle_27" data-name="Rectangle 27" width="155.912" height="4.828" transform="translate(642.047 136.715)" fill="#3f3d56"/>
    <rect id="Rectangle_28" data-name="Rectangle 28" width="155.912" height="4.828" transform="translate(642.047 155.681)" fill="#3f3d56"/>
    <rect id="Rectangle_29" data-name="Rectangle 29" width="155.912" height="4.828" transform="translate(642.047 174.648)" fill="#3f3d56"/>
    <rect id="Rectangle_30" data-name="Rectangle 30" width="22.529" height="22.529" transform="translate(817.196 48.091)" fill="#076aff"/>
    <path id="Path_19" data-name="Path 19" d="M1012.136,317.42H984.78V290.064h27.356Zm-26.167-1.189h24.977V291.253H985.971Z" transform="translate(-161.954 -236.341)" fill="#ccc"/>
    <path id="Path_20" data-name="Path 20" d="M1031.122,609.815H974.8v-4.058a.8.8,0,0,0-.8-.8h-19.31a.8.8,0,0,0-.8.8v4.058h-12.07v-4.058a.8.8,0,0,0-.8-.8H921.7a.8.8,0,0,0-.8.8h0v4.058H908.822v-4.058a.8.8,0,0,0-.8-.8h-19.31a.8.8,0,0,0-.8.8h0v4.058H875.834v-4.058a.8.8,0,0,0-.8-.8h-19.31a.8.8,0,0,0-.8.8v4.058h-12.07v-4.058a.8.8,0,0,0-.8-.8h-19.31a.8.8,0,0,0-.8.8h0v4.058H809.857v-4.058a.8.8,0,0,0-.8-.8H789.742a.8.8,0,0,0-.8.8h0v4.058H776.869v-4.058a.8.8,0,0,0-.8-.8H624.8a.8.8,0,0,0-.8.8h0v4.058H611.926v-4.058a.8.8,0,0,0-.8-.8h-19.31a.8.8,0,0,0-.8.8h0v4.058H578.938v-4.058a.8.8,0,0,0-.8-.8h-19.31a.8.8,0,0,0-.8.8h0v4.058h-12.07v-4.058a.8.8,0,0,0-.8-.8h-19.31a.8.8,0,0,0-.8.8h0v4.058H512.961v-4.058a.8.8,0,0,0-.8-.8H492.846a.8.8,0,0,0-.8.8h0v4.058H479.972v-4.058a.8.8,0,0,0-.8-.8h-19.31a.8.8,0,0,0-.8.8v4.058H446.984v-4.058a.8.8,0,0,0-.8-.8H426.868a.8.8,0,0,0-.8.8h0v4.058H389.052a19.31,19.31,0,0,0-19.31,19.31v8.732a19.31,19.31,0,0,0,19.31,19.31h642.069a19.31,19.31,0,0,0,19.31-19.31v-8.731a19.31,19.31,0,0,0-19.31-19.31Z" transform="translate(-112.658 -261.579)" fill="#3f3d56"/>
  </g>
</svg>
